<?xml version="1.0" encoding="utf-8"?>
<!-- Generator: Adobe Illustrator 16.0.0, SVG Export Plug-In . SVG Version: 6.00 Build 0)  -->
<!DOCTYPE svg PUBLIC "-//W3C//DTD SVG 1.1//EN" "http://www.w3.org/Graphics/SVG/1.1/DTD/svg11.dtd">
<svg version="1.1" id="Layer_1" xmlns="http://www.w3.org/2000/svg" xmlns:xlink="http://www.w3.org/1999/xlink" x="0px" y="0px"
	 width="595.28px" height="841.89px" viewBox="0 0 595.28 841.89" enable-background="new 0 0 595.28 841.89" xml:space="preserve">
<g>
	<g>
		<path fill="#C3AB92" d="M260.082,335.991c1.143,0,2.214,0.16,3.212,0.48c0.998,0.32,1.875,0.797,2.629,1.429
			c0.754,0.633,1.349,1.426,1.783,2.378c0.435,0.953,0.651,2.054,0.651,3.304c0,1.387-0.225,2.656-0.674,3.807
			s-1.06,2.24-1.829,3.269c-0.77,1.029-1.669,2.031-2.698,3.006c-1.029,0.976-2.115,1.981-3.258,3.018l-11.5,10.425
			c0.487-0.122,1.002-0.213,1.543-0.275c0.541-0.061,1.078-0.091,1.611-0.091h14.083c0.457,0,0.686,0.251,0.686,0.754l-0.16,1.212
			h-20.828l0.091-0.755c0.015-0.167,0.072-0.334,0.171-0.502c0.1-0.168,0.217-0.313,0.354-0.435l12.459-11.202
			c1.144-1.021,2.191-2,3.144-2.938c0.953-0.937,1.772-1.878,2.458-2.823c0.685-0.945,1.219-1.924,1.6-2.938
			c0.381-1.013,0.571-2.115,0.571-3.303c0-1.021-0.171-1.91-0.515-2.664c-0.342-0.755-0.808-1.379-1.394-1.875
			c-0.587-0.495-1.269-0.864-2.046-1.109c-0.777-0.244-1.601-0.366-2.469-0.366c-1.036,0-2,0.148-2.892,0.446
			c-0.892,0.297-1.7,0.724-2.423,1.28c-0.725,0.556-1.353,1.227-1.886,2.012c-0.534,0.785-0.953,1.657-1.257,2.618
			c-0.092,0.274-0.221,0.469-0.389,0.583c-0.167,0.114-0.358,0.172-0.572,0.172c-0.106,0-0.19-0.008-0.251-0.023l-1.052-0.16
			c0.351-1.372,0.876-2.598,1.578-3.681c0.701-1.082,1.531-1.996,2.492-2.743c0.96-0.746,2.03-1.318,3.211-1.715
			C257.502,336.189,258.757,335.991,260.082,335.991z"/>
		<path fill="#C3AB92" d="M286.122,335.991c1.402,0,2.698,0.274,3.886,0.823c1.189,0.549,2.218,1.372,3.086,2.469
			c0.869,1.098,1.547,2.473,2.035,4.127s0.732,3.585,0.732,5.795c0,3.369-0.374,6.295-1.121,8.779
			c-0.747,2.484-1.752,4.545-3.018,6.184c-1.265,1.639-2.732,2.862-4.401,3.67c-1.669,0.808-3.426,1.211-5.27,1.211
			c-1.402,0-2.697-0.274-3.886-0.823s-2.218-1.372-3.086-2.469c-0.869-1.098-1.547-2.473-2.035-4.126s-0.732-3.586-0.732-5.795
			c0-3.354,0.374-6.276,1.12-8.768c0.747-2.492,1.757-4.557,3.03-6.195c1.272-1.639,2.743-2.861,4.412-3.669
			C282.544,336.395,284.293,335.991,286.122,335.991z M282.327,367.244c1.508,0,2.945-0.361,4.31-1.084
			c1.363-0.723,2.568-1.826,3.612-3.31c1.043-1.483,1.874-3.355,2.491-5.615c0.618-2.26,0.926-4.927,0.926-8.001
			c0-1.978-0.202-3.69-0.605-5.135c-0.404-1.446-0.957-2.633-1.658-3.562c-0.701-0.928-1.528-1.617-2.48-2.066
			c-0.953-0.448-1.971-0.673-3.052-0.673c-1.509,0-2.949,0.362-4.321,1.084c-1.371,0.723-2.58,1.826-3.624,3.31
			c-1.044,1.483-1.875,3.355-2.492,5.615c-0.617,2.26-0.925,4.919-0.925,7.978c0,1.993,0.202,3.709,0.605,5.147
			c0.404,1.438,0.96,2.625,1.669,3.561c0.709,0.936,1.54,1.628,2.492,2.077C280.227,367.019,281.245,367.244,282.327,367.244z"/>
		<path fill="#C3AB92" d="M302.674,367.061h7.452l3.27-26.543l0.343-1.578l-8.071,6.493c-0.182,0.137-0.364,0.206-0.548,0.206
			c-0.273,0-0.466-0.091-0.571-0.274l-0.504-0.892l10.312-8.253h1.669l-3.771,30.841h7.064l-0.183,1.646H302.49L302.674,367.061z"/>
		<path fill="#C3AB92" d="M338.612,349.388c1.279,0,2.442,0.202,3.486,0.605c1.043,0.404,1.938,0.972,2.686,1.704
			c0.747,0.731,1.326,1.611,1.738,2.641c0.41,1.029,0.616,2.168,0.616,3.417c0,1.646-0.309,3.163-0.926,4.55
			s-1.464,2.58-2.537,3.578c-1.074,0.999-2.345,1.78-3.807,2.344c-1.463,0.563-3.041,0.846-4.733,0.846
			c-1.355,0-2.587-0.209-3.691-0.629c-1.105-0.419-2.047-1.024-2.823-1.817c-0.777-0.792-1.375-1.749-1.795-2.869
			s-0.629-2.381-0.629-3.784c0-0.884,0.103-1.757,0.31-2.618c0.205-0.861,0.529-1.745,0.971-2.652
			c0.442-0.907,1.006-1.844,1.692-2.812c0.686-0.968,1.501-2,2.445-3.098l10.335-11.911c0.136-0.152,0.303-0.278,0.502-0.377
			c0.198-0.099,0.42-0.148,0.663-0.148h1.852l-11.18,12.62c-0.578,0.64-1.105,1.246-1.577,1.817
			c-0.473,0.572-0.907,1.125-1.303,1.657c1.006-0.96,2.172-1.71,3.498-2.251C335.73,349.659,337.133,349.388,338.612,349.388z
			 M328.209,360.064c0,1.037,0.16,1.997,0.481,2.881c0.319,0.884,0.783,1.65,1.393,2.298s1.354,1.154,2.23,1.52
			c0.875,0.366,1.878,0.548,3.005,0.548c1.434,0,2.744-0.232,3.934-0.697c1.188-0.464,2.209-1.108,3.063-1.932
			c0.854-0.823,1.512-1.802,1.978-2.938c0.464-1.135,0.697-2.367,0.697-3.692c0-1.066-0.168-2.035-0.503-2.903
			c-0.336-0.869-0.812-1.608-1.429-2.218c-0.617-0.609-1.368-1.078-2.252-1.406s-1.867-0.492-2.949-0.492
			c-1.449,0-2.763,0.26-3.944,0.777c-1.182,0.518-2.194,1.2-3.04,2.046c-0.846,0.846-1.502,1.81-1.967,2.892
			C328.441,357.832,328.209,358.937,328.209,360.064z"/>
	</g>
	<g>
		<path fill="#C3AB92" d="M220.622,409.858v13.717h-0.548v-32.007h7.224c3.49,0,6.168,0.755,8.036,2.264
			c1.867,1.509,2.8,3.803,2.8,6.881c0,1.326-0.263,2.549-0.789,3.669s-1.269,2.084-2.229,2.892c-0.96,0.808-2.103,1.44-3.429,1.897
			c-1.326,0.457-2.789,0.686-4.389,0.686H220.622z M220.622,409.401h6.676c1.569,0,2.987-0.225,4.252-0.675
			c1.265-0.449,2.343-1.066,3.235-1.851c0.891-0.785,1.581-1.704,2.068-2.755c0.488-1.051,0.732-2.187,0.732-3.406
			c0-2.85-0.857-5.011-2.572-6.481c-1.714-1.471-4.287-2.206-7.716-2.206h-6.676V409.401z"/>
		<path fill="#C3AB92" d="M251.531,400.805c1.569,0,2.964,0.278,4.184,0.834c1.219,0.557,2.244,1.337,3.075,2.343
			c0.831,1.006,1.459,2.222,1.886,3.646c0.426,1.426,0.64,3.007,0.64,4.744c0,1.738-0.214,3.311-0.64,4.721
			c-0.427,1.41-1.056,2.618-1.886,3.624c-0.831,1.006-1.856,1.779-3.075,2.32c-1.22,0.541-2.615,0.813-4.184,0.813
			c-1.585,0-2.983-0.271-4.195-0.813c-1.211-0.541-2.233-1.314-3.063-2.32c-0.831-1.006-1.459-2.214-1.886-3.624
			c-0.427-1.41-0.64-2.983-0.64-4.721c0-1.737,0.213-3.318,0.64-4.744c0.427-1.425,1.055-2.64,1.886-3.646
			c0.831-1.006,1.852-1.787,3.063-2.343C248.548,401.083,249.946,400.805,251.531,400.805z M251.531,423.393
			c1.524,0,2.865-0.266,4.024-0.799c1.158-0.534,2.122-1.282,2.892-2.242s1.349-2.119,1.738-3.475
			c0.389-1.356,0.583-2.857,0.583-4.504s-0.194-3.151-0.583-4.515c-0.389-1.364-0.968-2.534-1.738-3.509
			c-0.77-0.976-1.733-1.733-2.892-2.275c-1.159-0.541-2.5-0.812-4.024-0.812c-1.54,0-2.885,0.271-4.036,0.812
			c-1.151,0.542-2.111,1.299-2.88,2.275c-0.77,0.975-1.349,2.145-1.737,3.509c-0.389,1.364-0.583,2.869-0.583,4.515
			s0.194,3.147,0.583,4.504c0.389,1.356,0.967,2.515,1.737,3.475c0.77,0.96,1.729,1.708,2.88,2.242S249.991,423.393,251.531,423.393
			z"/>
		<path fill="#C3AB92" d="M267.626,423.575V401.17h0.137c0.213,0,0.32,0.123,0.32,0.366l0.068,6.218
			c0.32-1.112,0.716-2.1,1.189-2.961c0.472-0.86,1.029-1.588,1.669-2.183c0.64-0.595,1.368-1.044,2.184-1.349
			c0.815-0.305,1.733-0.458,2.754-0.458c0.732,0,1.41,0.077,2.035,0.229c0.625,0.153,1.227,0.366,1.806,0.64l-0.092,0.183
			c-0.03,0.046-0.057,0.088-0.08,0.125c-0.022,0.039-0.072,0.058-0.148,0.058c-0.077,0-0.202-0.038-0.377-0.114
			s-0.403-0.16-0.686-0.252c-0.282-0.091-0.625-0.175-1.029-0.251c-0.403-0.077-0.88-0.115-1.429-0.115
			c-1.997,0-3.612,0.655-4.846,1.967c-1.235,1.311-2.21,3.17-2.927,5.578v14.723H267.626z"/>
		<path fill="#C3AB92" d="M291.083,423.941c-1.311,0-2.339-0.359-3.086-1.075c-0.747-0.716-1.12-1.897-1.12-3.544v-16.734h-3.704
			c-0.213,0-0.32-0.077-0.32-0.229v-0.137l4.024-0.091l0.183-9.008c0-0.076,0.019-0.148,0.058-0.217
			c0.038-0.068,0.095-0.103,0.171-0.103h0.137v9.328h7.635v0.458h-7.635v16.734c0,0.764,0.095,1.407,0.286,1.934
			c0.19,0.524,0.453,0.951,0.789,1.279c0.335,0.328,0.724,0.568,1.166,0.721c0.441,0.152,0.915,0.228,1.417,0.228
			c0.641,0,1.201-0.098,1.681-0.297s0.888-0.412,1.223-0.641c0.335-0.228,0.606-0.442,0.812-0.64
			c0.206-0.198,0.354-0.298,0.446-0.298c0.061,0,0.122,0.031,0.183,0.092l0.092,0.091c-0.229,0.306-0.507,0.592-0.835,0.857
			c-0.328,0.268-0.686,0.496-1.075,0.687c-0.388,0.191-0.8,0.338-1.234,0.445C291.94,423.888,291.509,423.941,291.083,423.941z"/>
		<path fill="#C3AB92" d="M301.966,423.575v-20.987l-3.75-0.092c-0.183,0-0.274-0.061-0.274-0.183v-0.183h4.024v-3.429
			c0-1.28,0.151-2.389,0.456-3.327s0.728-1.71,1.27-2.321c0.54-0.609,1.185-1.063,1.932-1.36c0.746-0.297,1.569-0.446,2.469-0.446
			c0.442,0,0.9,0.042,1.371,0.126c0.474,0.083,0.869,0.209,1.189,0.377l-0.047,0.183c-0.029,0.092-0.082,0.137-0.158,0.137
			c-0.154,0-0.408-0.061-0.766-0.183c-0.359-0.122-0.889-0.182-1.59-0.182c-0.792,0-1.528,0.125-2.206,0.377
			c-0.679,0.251-1.269,0.655-1.772,1.211c-0.502,0.557-0.896,1.28-1.177,2.172c-0.282,0.891-0.423,1.97-0.423,3.235v3.429h8.002
			v0.458h-8.002v20.987H301.966z"/>
		<path fill="#C3AB92" d="M323.363,400.805c1.569,0,2.965,0.278,4.184,0.834c1.219,0.557,2.244,1.337,3.075,2.343
			c0.831,1.006,1.46,2.222,1.886,3.646c0.427,1.426,0.641,3.007,0.641,4.744c0,1.738-0.214,3.311-0.641,4.721
			c-0.426,1.41-1.055,2.618-1.886,3.624s-1.856,1.779-3.075,2.32c-1.219,0.541-2.614,0.813-4.184,0.813
			c-1.585,0-2.983-0.271-4.195-0.813c-1.211-0.541-2.232-1.314-3.063-2.32c-0.83-1.006-1.46-2.214-1.886-3.624
			c-0.427-1.41-0.64-2.983-0.64-4.721c0-1.737,0.213-3.318,0.64-4.744c0.426-1.425,1.056-2.64,1.886-3.646
			c0.831-1.006,1.853-1.787,3.063-2.343C320.38,401.083,321.778,400.805,323.363,400.805z M323.363,423.393
			c1.524,0,2.865-0.266,4.024-0.799c1.157-0.534,2.122-1.282,2.893-2.242c0.769-0.96,1.348-2.119,1.736-3.475
			c0.389-1.356,0.583-2.857,0.583-4.504s-0.194-3.151-0.583-4.515c-0.389-1.364-0.968-2.534-1.736-3.509
			c-0.771-0.976-1.735-1.733-2.893-2.275c-1.159-0.541-2.5-0.812-4.024-0.812c-1.539,0-2.885,0.271-4.034,0.812
			c-1.152,0.542-2.112,1.299-2.882,2.275c-0.769,0.975-1.349,2.145-1.736,3.509c-0.39,1.364-0.584,2.869-0.584,4.515
			s0.194,3.147,0.584,4.504c0.388,1.356,0.968,2.515,1.736,3.475c0.77,0.96,1.729,1.708,2.882,2.242
			C320.479,423.127,321.824,423.393,323.363,423.393z"/>
		<path fill="#C3AB92" d="M340.784,390.654v32.921h-0.549v-32.921H340.784z"/>
		<path fill="#C3AB92" d="M351.94,392.849c0,0.32-0.134,0.605-0.4,0.857s-0.56,0.377-0.881,0.377c-0.351,0-0.65-0.126-0.902-0.377
			s-0.377-0.537-0.377-0.857c0-0.351,0.125-0.652,0.377-0.903s0.552-0.377,0.902-0.377c0.321,0,0.614,0.126,0.881,0.377
			S351.94,392.499,351.94,392.849z M350.934,401.17v22.405h-0.548V401.17H350.934z"/>
		<path fill="#C3AB92" d="M367.806,400.805c1.569,0,2.965,0.278,4.184,0.834c1.22,0.557,2.244,1.337,3.075,2.343
			c0.83,1.006,1.46,2.222,1.886,3.646c0.427,1.426,0.642,3.007,0.642,4.744c0,1.738-0.215,3.311-0.642,4.721
			c-0.426,1.41-1.056,2.618-1.886,3.624c-0.831,1.006-1.855,1.779-3.075,2.32c-1.219,0.541-2.614,0.813-4.184,0.813
			c-1.585,0-2.982-0.271-4.195-0.813c-1.212-0.541-2.232-1.314-3.063-2.32c-0.832-1.006-1.461-2.214-1.887-3.624
			c-0.427-1.41-0.641-2.983-0.641-4.721c0-1.737,0.214-3.318,0.641-4.744c0.426-1.425,1.055-2.64,1.887-3.646
			c0.83-1.006,1.851-1.787,3.063-2.343C364.823,401.083,366.221,400.805,367.806,400.805z M367.806,423.393
			c1.523,0,2.864-0.266,4.023-0.799c1.158-0.534,2.123-1.282,2.893-2.242c0.769-0.96,1.35-2.119,1.737-3.475
			c0.389-1.356,0.583-2.857,0.583-4.504s-0.194-3.151-0.583-4.515c-0.388-1.364-0.969-2.534-1.737-3.509
			c-0.77-0.976-1.734-1.733-2.893-2.275c-1.159-0.541-2.5-0.812-4.023-0.812c-1.54,0-2.885,0.271-4.035,0.812
			c-1.151,0.542-2.111,1.299-2.882,2.275c-0.769,0.975-1.348,2.145-1.736,3.509c-0.389,1.364-0.583,2.869-0.583,4.515
			s0.194,3.147,0.583,4.504c0.389,1.356,0.968,2.515,1.736,3.475c0.771,0.96,1.73,1.708,2.882,2.242
			C364.921,423.127,366.266,423.393,367.806,423.393z"/>
	</g>
	<g>
		<path fill="#A4A3A3" d="M216.302,482.73h10.53l-0.064,0.352h-10.882l2.752-22.404h0.384L216.302,482.73z"/>
		<path fill="#A4A3A3" d="M241.107,470.054c0,0.417-0.056,0.814-0.168,1.193c-0.112,0.378-0.314,0.738-0.608,1.08
			c-0.293,0.341-0.702,0.662-1.224,0.96c-0.523,0.299-1.192,0.579-2.009,0.84c-0.816,0.261-1.8,0.501-2.953,0.72
			c-1.152,0.219-2.507,0.414-4.064,0.584c-0.096,0.629-0.144,1.249-0.144,1.856c0,0.875,0.101,1.662,0.304,2.361
			s0.504,1.294,0.904,1.784c0.4,0.491,0.901,0.868,1.504,1.129c0.603,0.261,1.31,0.392,2.12,0.392c0.608,0,1.161-0.071,1.657-0.215
			s0.942-0.323,1.336-0.536c0.395-0.214,0.744-0.443,1.048-0.689s0.565-0.475,0.784-0.688c0.219-0.213,0.402-0.393,0.552-0.537
			s0.267-0.215,0.352-0.215c0.032,0,0.059,0.002,0.08,0.008c0.021,0.005,0.059,0.035,0.112,0.088c-0.502,0.544-0.99,1.01-1.464,1.4
			s-0.952,0.712-1.433,0.969c-0.48,0.255-0.971,0.442-1.472,0.559c-0.502,0.117-1.03,0.176-1.585,0.176
			c-0.854,0-1.603-0.138-2.248-0.416c-0.646-0.277-1.185-0.672-1.617-1.185c-0.432-0.511-0.755-1.139-0.968-1.88
			c-0.213-0.741-0.32-1.576-0.32-2.505c0-0.768,0.074-1.554,0.224-2.36c0.149-0.806,0.373-1.582,0.672-2.329
			c0.298-0.747,0.667-1.451,1.104-2.112c0.437-0.662,0.941-1.238,1.512-1.729c0.571-0.49,1.206-0.877,1.904-1.16
			c0.699-0.282,1.464-0.424,2.297-0.424c0.746,0,1.365,0.102,1.856,0.303c0.491,0.204,0.88,0.455,1.168,0.752
			c0.288,0.299,0.491,0.614,0.608,0.945C241.048,469.505,241.107,469.799,241.107,470.054z M237.298,467.495
			c-1.014,0-1.923,0.219-2.729,0.656c-0.805,0.438-1.51,1.014-2.112,1.728c-0.603,0.714-1.099,1.528-1.488,2.44
			c-0.39,0.912-0.67,1.843-0.84,2.793c1.578-0.171,2.938-0.366,4.081-0.585c1.142-0.218,2.107-0.456,2.897-0.712
			c0.789-0.255,1.426-0.53,1.912-0.824c0.485-0.293,0.861-0.6,1.128-0.92c0.267-0.32,0.445-0.648,0.537-0.984
			c0.09-0.336,0.136-0.68,0.136-1.033c0-0.255-0.062-0.533-0.185-0.832c-0.123-0.298-0.32-0.576-0.592-0.832
			c-0.272-0.257-0.635-0.47-1.089-0.641C238.501,467.579,237.949,467.495,237.298,467.495z"/>
		<path fill="#A4A3A3" d="M255.03,470.054c0,0.417-0.056,0.814-0.168,1.193c-0.112,0.378-0.315,0.738-0.608,1.08
			c-0.293,0.341-0.702,0.662-1.224,0.96c-0.523,0.299-1.192,0.579-2.009,0.84c-0.816,0.261-1.8,0.501-2.953,0.72
			c-1.152,0.219-2.507,0.414-4.064,0.584c-0.096,0.629-0.144,1.249-0.144,1.856c0,0.875,0.101,1.662,0.304,2.361
			s0.504,1.294,0.904,1.784c0.4,0.491,0.901,0.868,1.504,1.129c0.603,0.261,1.31,0.392,2.12,0.392c0.608,0,1.161-0.071,1.657-0.215
			s0.941-0.323,1.336-0.536c0.395-0.214,0.744-0.443,1.048-0.689s0.565-0.475,0.784-0.688c0.219-0.213,0.402-0.393,0.552-0.537
			c0.149-0.144,0.267-0.215,0.352-0.215c0.032,0,0.059,0.002,0.08,0.008c0.021,0.005,0.059,0.035,0.112,0.088
			c-0.501,0.544-0.989,1.01-1.464,1.4c-0.475,0.39-0.952,0.712-1.433,0.969c-0.48,0.255-0.971,0.442-1.472,0.559
			s-1.03,0.176-1.584,0.176c-0.854,0-1.603-0.138-2.248-0.416c-0.646-0.277-1.185-0.672-1.617-1.185
			c-0.432-0.511-0.755-1.139-0.968-1.88s-0.32-1.576-0.32-2.505c0-0.768,0.074-1.554,0.224-2.36c0.15-0.806,0.374-1.582,0.672-2.329
			c0.298-0.747,0.667-1.451,1.104-2.112c0.437-0.662,0.941-1.238,1.512-1.729c0.571-0.49,1.206-0.877,1.905-1.16
			c0.699-0.282,1.464-0.424,2.297-0.424c0.746,0,1.365,0.102,1.856,0.303c0.49,0.204,0.88,0.455,1.168,0.752
			c0.288,0.299,0.491,0.614,0.608,0.945C254.971,469.505,255.03,469.799,255.03,470.054z M251.222,467.495
			c-1.014,0-1.924,0.219-2.729,0.656c-0.806,0.438-1.51,1.014-2.113,1.728c-0.603,0.714-1.099,1.528-1.488,2.44
			c-0.39,0.912-0.67,1.843-0.84,2.793c1.579-0.171,2.939-0.366,4.081-0.585c1.141-0.218,2.107-0.456,2.896-0.712
			c0.79-0.255,1.427-0.53,1.913-0.824c0.485-0.293,0.861-0.6,1.128-0.92c0.267-0.32,0.445-0.648,0.536-0.984s0.136-0.68,0.136-1.033
			c0-0.255-0.062-0.533-0.184-0.832c-0.123-0.298-0.32-0.576-0.592-0.832c-0.272-0.257-0.635-0.47-1.088-0.641
			S251.872,467.495,251.222,467.495z"/>
		<path fill="#A4A3A3" d="M272.25,476.489c-0.15,1.227-0.408,2.271-0.776,3.136c-0.368,0.865-0.825,1.572-1.368,2.121
			c-0.544,0.549-1.163,0.953-1.856,1.208c-0.694,0.257-1.446,0.384-2.256,0.384h-0.08c-0.577,0-1.091-0.039-1.544-0.12
			c-0.454-0.081-0.889-0.2-1.304-0.36l0.032-0.096c0.011-0.031,0.029-0.066,0.056-0.104c0.026-0.037,0.082-0.056,0.168-0.056
			c0.096,0,0.205,0.021,0.328,0.063c0.123,0.044,0.283,0.092,0.481,0.144c0.197,0.054,0.439,0.102,0.728,0.144
			c0.288,0.043,0.651,0.065,1.088,0.065c0.693,0,1.363-0.107,2.008-0.32c0.646-0.213,1.232-0.571,1.76-1.073
			c0.528-0.501,0.982-1.17,1.36-2.008c0.379-0.837,0.643-1.88,0.792-3.128l1.952-15.812h0.384L272.25,476.489z"/>
		<path fill="#A4A3A3" d="M287.484,483.082h-0.096c-0.075,0-0.125-0.019-0.152-0.056c-0.027-0.038-0.04-0.083-0.04-0.136
			l0.768-6.689c-0.405,1.035-0.87,1.987-1.392,2.855c-0.523,0.871-1.085,1.617-1.688,2.242c-0.603,0.624-1.24,1.109-1.912,1.456
			c-0.673,0.347-1.366,0.52-2.081,0.52c-0.693,0-1.282-0.134-1.768-0.399c-0.485-0.267-0.88-0.641-1.185-1.121
			c-0.303-0.48-0.528-1.05-0.672-1.712c-0.144-0.661-0.216-1.387-0.216-2.177c0-0.895,0.117-1.781,0.352-2.656
			c0.234-0.875,0.56-1.707,0.976-2.497c0.416-0.789,0.912-1.521,1.488-2.192c0.577-0.672,1.208-1.253,1.896-1.744
			c0.688-0.491,1.419-0.875,2.192-1.153c0.774-0.277,1.566-0.415,2.376-0.415c0.576,0,1.104,0.056,1.584,0.167
			c0.48,0.113,0.944,0.313,1.393,0.601L287.484,483.082z M280.891,482.953c0.683,0,1.358-0.175,2.024-0.528
			c0.667-0.352,1.305-0.858,1.913-1.521c0.608-0.661,1.184-1.459,1.728-2.392c0.544-0.934,1.041-1.987,1.489-3.161l0.896-7.218
			c-0.395-0.213-0.805-0.369-1.232-0.464c-0.427-0.096-0.886-0.144-1.376-0.144c-0.768,0-1.52,0.134-2.256,0.401
			c-0.736,0.267-1.435,0.635-2.097,1.104c-0.661,0.47-1.27,1.029-1.824,1.68c-0.555,0.651-1.035,1.361-1.44,2.129
			c-0.406,0.768-0.72,1.58-0.944,2.433c-0.224,0.854-0.336,1.718-0.336,2.592c0,0.779,0.066,1.481,0.201,2.105
			c0.133,0.624,0.338,1.158,0.615,1.6c0.277,0.443,0.635,0.785,1.072,1.025S280.283,482.953,280.891,482.953z"/>
		<path fill="#A4A3A3" d="M304,470.054c0,0.417-0.057,0.814-0.168,1.193c-0.112,0.378-0.314,0.738-0.609,1.08
			c-0.293,0.341-0.701,0.662-1.224,0.96c-0.522,0.299-1.192,0.579-2.009,0.84c-0.815,0.261-1.8,0.501-2.953,0.72
			c-1.152,0.219-2.507,0.414-4.064,0.584c-0.096,0.629-0.144,1.249-0.144,1.856c0,0.875,0.101,1.662,0.304,2.361
			s0.504,1.294,0.904,1.784c0.4,0.491,0.901,0.868,1.504,1.129c0.603,0.261,1.31,0.392,2.12,0.392c0.608,0,1.161-0.071,1.656-0.215
			c0.497-0.144,0.942-0.323,1.338-0.536c0.394-0.214,0.743-0.443,1.047-0.689c0.305-0.246,0.566-0.475,0.785-0.688
			c0.219-0.213,0.402-0.393,0.552-0.537c0.15-0.144,0.267-0.215,0.353-0.215c0.032,0,0.059,0.002,0.079,0.008
			c0.022,0.005,0.059,0.035,0.112,0.088c-0.501,0.544-0.99,1.01-1.463,1.4c-0.476,0.39-0.954,0.712-1.434,0.969
			c-0.48,0.255-0.972,0.442-1.472,0.559c-0.502,0.117-1.03,0.176-1.585,0.176c-0.854,0-1.603-0.138-2.248-0.416
			c-0.646-0.277-1.185-0.672-1.617-1.185c-0.432-0.511-0.755-1.139-0.968-1.88s-0.32-1.576-0.32-2.505
			c0-0.768,0.074-1.554,0.224-2.36c0.15-0.806,0.374-1.582,0.672-2.329c0.298-0.747,0.667-1.451,1.104-2.112
			c0.437-0.662,0.941-1.238,1.512-1.729c0.571-0.49,1.206-0.877,1.905-1.16c0.699-0.282,1.464-0.424,2.296-0.424
			c0.746,0,1.365,0.102,1.856,0.303c0.49,0.204,0.881,0.455,1.169,0.752c0.288,0.299,0.49,0.614,0.607,0.945
			C303.94,469.505,304,469.799,304,470.054z M300.19,467.495c-1.014,0-1.923,0.219-2.729,0.656s-1.51,1.014-2.113,1.728
			c-0.603,0.714-1.099,1.528-1.488,2.44c-0.39,0.912-0.67,1.843-0.84,2.793c1.579-0.171,2.939-0.366,4.081-0.585
			c1.141-0.218,2.106-0.456,2.897-0.712c0.789-0.255,1.427-0.53,1.912-0.824s0.86-0.6,1.128-0.92
			c0.267-0.32,0.444-0.648,0.536-0.984c0.091-0.336,0.137-0.68,0.137-1.033c0-0.255-0.063-0.533-0.185-0.832
			c-0.123-0.298-0.32-0.576-0.593-0.832c-0.272-0.257-0.634-0.47-1.087-0.641S300.841,467.495,300.19,467.495z"/>
		<path fill="#A4A3A3" d="M308.224,488.587c-0.085,0.169-0.202,0.255-0.351,0.255h-0.191l3.216-6.034l-4.337-15.411h0.191
			c0.085,0,0.145,0.016,0.177,0.048c0.031,0.031,0.059,0.091,0.079,0.175l4.001,14.243c0.054,0.192,0.091,0.395,0.113,0.608
			c0.031-0.106,0.071-0.21,0.119-0.312s0.1-0.201,0.151-0.297l7.522-14.307c0.053-0.106,0.138-0.16,0.255-0.16h0.225
			L308.224,488.587z"/>
		<path fill="#A4A3A3" d="M325.444,483.273c-0.833,0-1.582-0.149-2.249-0.447c-0.667-0.299-1.232-0.724-1.696-1.273
			c-0.465-0.549-0.819-1.217-1.063-2c-0.246-0.785-0.369-1.667-0.369-2.649c0-0.821,0.081-1.632,0.24-2.432
			c0.161-0.801,0.393-1.563,0.696-2.289s0.672-1.395,1.104-2.008c0.432-0.613,0.926-1.144,1.48-1.592
			c0.555-0.449,1.165-0.8,1.831-1.057c0.668-0.256,1.38-0.384,2.137-0.384c0.833,0,1.58,0.15,2.242,0.449
			c0.66,0.298,1.224,0.726,1.688,1.281c0.465,0.555,0.821,1.223,1.071,2.008c0.252,0.784,0.378,1.663,0.378,2.632
			c0,0.812-0.08,1.617-0.241,2.417c-0.16,0.8-0.392,1.563-0.696,2.289c-0.304,0.726-0.673,1.397-1.104,2.016
			c-0.433,0.62-0.927,1.152-1.48,1.601c-0.556,0.448-1.166,0.8-1.833,1.056C326.913,483.145,326.201,483.273,325.444,483.273z
			 M325.477,482.953c1.056,0,2.02-0.269,2.888-0.808c0.871-0.538,1.614-1.25,2.232-2.137c0.618-0.885,1.099-1.893,1.44-3.024
			s0.514-2.289,0.514-3.473c0-0.938-0.119-1.781-0.354-2.528c-0.234-0.747-0.571-1.382-1.009-1.904s-0.965-0.923-1.583-1.2
			c-0.619-0.278-1.313-0.417-2.081-0.417c-0.704,0-1.368,0.123-1.992,0.369s-1.198,0.584-1.721,1.016
			c-0.522,0.432-0.992,0.945-1.408,1.536c-0.415,0.593-0.769,1.238-1.057,1.937s-0.509,1.438-0.664,2.217
			c-0.155,0.778-0.23,1.568-0.23,2.368c0,0.939,0.116,1.783,0.351,2.529c0.235,0.747,0.569,1.382,1,1.904
			c0.433,0.523,0.958,0.923,1.577,1.201C323.998,482.815,324.697,482.953,325.477,482.953z"/>
		<path fill="#A4A3A3" d="M337.991,467.398l-1.186,9.985c-0.063,0.566-0.096,1.094-0.096,1.585c0,1.269,0.237,2.25,0.712,2.943
			c0.476,0.695,1.241,1.041,2.298,1.041c0.66,0,1.33-0.162,2.008-0.488c0.678-0.325,1.334-0.792,1.968-1.4
			c0.635-0.608,1.238-1.342,1.809-2.201c0.571-0.858,1.085-1.821,1.545-2.888l1.023-8.578h0.353l-1.888,15.683h-0.097
			c-0.086,0-0.14-0.024-0.159-0.073c-0.022-0.048-0.032-0.098-0.032-0.151l0.735-6.081v-0.081c-0.427,0.992-0.918,1.895-1.472,2.705
			c-0.556,0.81-1.153,1.503-1.792,2.08c-0.642,0.576-1.302,1.019-1.985,1.328s-1.366,0.464-2.049,0.464
			c-1.151,0-1.997-0.371-2.536-1.112s-0.808-1.795-0.808-3.161c0-0.245,0.01-0.503,0.032-0.776c0.02-0.272,0.047-0.553,0.079-0.841
			l1.185-9.985H337.991z"/>
		<path fill="#A4A3A3" d="M352.041,483.082l1.889-15.748h0.063c0.085,0,0.139,0.024,0.16,0.072s0.032,0.098,0.032,0.152l-0.688,6.13
			c0.426-0.993,0.917-1.889,1.474-2.689c0.554-0.799,1.148-1.485,1.783-2.056c0.635-0.57,1.293-1.008,1.977-1.312
			c0.683-0.305,1.366-0.457,2.049-0.457c1.152,0,1.997,0.366,2.537,1.096c0.537,0.731,0.808,1.779,0.808,3.145
			c0,0.246-0.011,0.504-0.032,0.776c-0.021,0.272-0.048,0.552-0.08,0.84l-1.185,10.05h-0.352l1.185-10.05
			c0.031-0.277,0.058-0.549,0.08-0.816c0.02-0.267,0.031-0.522,0.031-0.768c0-1.259-0.24-2.232-0.72-2.921
			c-0.48-0.688-1.248-1.031-2.306-1.031c-0.661,0-1.33,0.163-2.007,0.488c-0.679,0.326-1.335,0.789-1.97,1.392
			c-0.634,0.603-1.236,1.334-1.808,2.192c-0.572,0.859-1.086,1.822-1.546,2.889l-1.023,8.625H352.041z"/>
		<path fill="#A4A3A3" d="M377.647,471.239c-0.012,0.651-0.1,1.238-0.265,1.76c-0.167,0.523-0.371,1-0.616,1.432
			c-0.246,0.432-0.507,0.835-0.785,1.209c-0.276,0.373-0.533,0.733-0.768,1.08c-0.234,0.347-0.431,0.694-0.592,1.041
			c-0.161,0.347-0.24,0.712-0.24,1.096c0,0.288,0.072,0.561,0.216,0.816c0.145,0.257,0.326,0.51,0.545,0.76
			c0.219,0.251,0.455,0.504,0.712,0.76c0.257,0.257,0.493,0.539,0.712,0.848c0.219,0.31,0.399,0.649,0.545,1.016
			c0.143,0.368,0.216,0.781,0.216,1.241c0,0.597-0.163,1.183-0.488,1.759c-0.326,0.577-0.785,1.088-1.378,1.537
			c-0.591,0.448-1.298,0.811-2.119,1.088c-0.822,0.277-1.723,0.416-2.705,0.416c-0.768,0-1.478-0.077-2.128-0.232
			c-0.651-0.155-1.211-0.385-1.681-0.69c-0.469-0.305-0.838-0.681-1.104-1.129c-0.268-0.45-0.4-0.974-0.4-1.572
			c0-0.685,0.175-1.317,0.528-1.9c0.353-0.583,0.853-1.085,1.505-1.507c0.649-0.422,1.434-0.753,2.352-0.994
			c0.918-0.241,1.947-0.361,3.089-0.361c0.361,0,0.733,0.013,1.112,0.04s0.77,0.067,1.176,0.121
			c-0.277-0.277-0.518-0.572-0.721-0.885c-0.202-0.313-0.304-0.688-0.304-1.124c0-0.222,0.019-0.436,0.056-0.638
			c0.038-0.201,0.105-0.414,0.201-0.636c0.096-0.223,0.229-0.468,0.399-0.734c0.171-0.267,0.396-0.57,0.672-0.912
			c-0.469,0.342-0.968,0.608-1.495,0.8c-0.529,0.192-1.049,0.288-1.561,0.288c-0.607,0-1.164-0.094-1.665-0.28
			s-0.928-0.458-1.28-0.816c-0.352-0.357-0.627-0.797-0.824-1.321c-0.197-0.522-0.297-1.114-0.297-1.776
			c0-0.714,0.121-1.411,0.361-2.088c0.239-0.678,0.589-1.281,1.048-1.809s1.016-0.955,1.672-1.28
			c0.656-0.325,1.401-0.488,2.233-0.488c1.034,0,1.899,0.255,2.592,0.768h3.97v0.128c0,0.033-0.02,0.067-0.056,0.104
			c-0.038,0.038-0.115,0.067-0.232,0.088h-3.298c0.342,0.341,0.609,0.762,0.802,1.264
			C377.551,470.028,377.647,470.599,377.647,471.239z M376.976,484.298c0-0.385-0.047-0.723-0.137-1.017
			c-0.092-0.293-0.211-0.563-0.36-0.808s-0.32-0.469-0.513-0.672c-0.191-0.202-0.384-0.4-0.576-0.592
			c-0.447-0.054-0.879-0.096-1.296-0.128c-0.416-0.032-0.815-0.048-1.2-0.048c-1.194,0-2.243,0.121-3.145,0.36
			c-0.901,0.24-1.654,0.565-2.256,0.976c-0.603,0.411-1.058,0.886-1.36,1.425c-0.305,0.538-0.457,1.102-0.457,1.688
			c0,0.534,0.123,1.004,0.368,1.409c0.246,0.405,0.59,0.749,1.032,1.032c0.442,0.283,0.971,0.496,1.585,0.64
			c0.613,0.144,1.282,0.217,2.008,0.217c0.95,0,1.812-0.132,2.584-0.393c0.774-0.261,1.436-0.603,1.985-1.023
			c0.549-0.422,0.974-0.899,1.272-1.432C376.809,485.397,376.964,484.852,376.976,484.298z M372.334,476.712
			c0.778,0,1.478-0.16,2.096-0.48c0.619-0.32,1.145-0.736,1.576-1.248c0.433-0.512,0.761-1.096,0.985-1.752
			c0.223-0.657,0.336-1.321,0.336-1.993c0-0.628-0.091-1.179-0.272-1.648c-0.183-0.47-0.435-0.858-0.761-1.168
			c-0.326-0.31-0.72-0.542-1.183-0.696c-0.465-0.155-0.975-0.232-1.529-0.232c-0.79,0-1.492,0.152-2.104,0.456
			c-0.613,0.305-1.131,0.704-1.553,1.201c-0.421,0.496-0.744,1.063-0.968,1.703c-0.225,0.641-0.336,1.302-0.336,1.985
			c0,1.28,0.339,2.246,1.016,2.897C370.314,476.387,371.213,476.712,372.334,476.712z"/>
	</g>
	<g>
		<path fill="#434343" d="M175.612,553.969h0.777c0.177,0,0.29,0.083,0.338,0.248l3.265,10.635c0.037,0.122,0.069,0.252,0.096,0.393
			c0.028,0.141,0.056,0.287,0.087,0.439c0.031-0.152,0.061-0.298,0.092-0.439c0.031-0.141,0.067-0.271,0.11-0.393l3.658-10.635
			c0.024-0.068,0.067-0.125,0.128-0.174c0.061-0.049,0.134-0.073,0.219-0.073h0.256c0.085,0,0.155,0.023,0.21,0.069
			c0.055,0.046,0.098,0.105,0.128,0.179l3.658,10.635c0.043,0.122,0.081,0.25,0.114,0.384c0.034,0.134,0.065,0.277,0.096,0.43
			c0.031-0.146,0.058-0.288,0.083-0.425c0.024-0.137,0.055-0.267,0.091-0.388l3.266-10.635c0.018-0.068,0.059-0.125,0.123-0.174
			c0.063-0.049,0.139-0.073,0.224-0.073h0.713l-4.069,12.94h-0.841l-3.823-11.23c-0.048-0.146-0.091-0.301-0.127-0.467
			c-0.037,0.166-0.08,0.32-0.128,0.467l-3.832,11.23h-0.832L175.612,553.969z"/>
		<path fill="#434343" d="M198.236,557.664c0.512,0,0.986,0.088,1.422,0.265c0.436,0.177,0.814,0.435,1.134,0.773
			c0.32,0.338,0.57,0.754,0.75,1.248s0.27,1.061,0.27,1.701c0,0.134-0.02,0.226-0.06,0.273c-0.04,0.049-0.102,0.074-0.188,0.074
			h-6.566v0.174c0,0.682,0.079,1.283,0.238,1.8c0.158,0.52,0.384,0.954,0.677,1.304c0.292,0.351,0.646,0.614,1.061,0.79
			c0.415,0.178,0.878,0.266,1.391,0.266c0.457,0,0.854-0.05,1.188-0.151s0.617-0.213,0.846-0.338
			c0.229-0.125,0.41-0.238,0.544-0.338c0.134-0.102,0.231-0.151,0.292-0.151c0.079,0,0.14,0.031,0.183,0.091l0.238,0.292
			c-0.146,0.183-0.34,0.354-0.581,0.512c-0.241,0.159-0.509,0.295-0.804,0.408c-0.296,0.113-0.613,0.202-0.951,0.269
			c-0.338,0.067-0.679,0.101-1.02,0.101c-0.622,0-1.189-0.108-1.701-0.324c-0.512-0.217-0.951-0.533-1.318-0.947
			c-0.367-0.416-0.65-0.922-0.851-1.522c-0.2-0.601-0.3-1.289-0.3-2.062c0-0.653,0.093-1.255,0.279-1.806
			c0.186-0.553,0.454-1.028,0.804-1.427c0.351-0.399,0.78-0.712,1.289-0.938C197.012,557.776,197.589,557.664,198.236,557.664z
			 M198.249,558.313c-0.469,0-0.889,0.073-1.26,0.219c-0.372,0.146-0.692,0.357-0.963,0.63c-0.271,0.275-0.49,0.604-0.657,0.988
			c-0.167,0.384-0.279,0.814-0.333,1.29h5.99c0-0.488-0.067-0.924-0.201-1.312c-0.134-0.387-0.322-0.716-0.566-0.983
			c-0.243-0.268-0.536-0.475-0.876-0.618C199.041,558.385,198.663,558.313,198.249,558.313z"/>
		<path fill="#434343" d="M204.244,566.909v-13.305h0.869l0.009,5.797c0.402-0.536,0.869-0.96,1.399-1.271
			c0.53-0.311,1.127-0.466,1.792-0.466c1.116,0,1.986,0.385,2.611,1.156c0.625,0.771,0.937,1.931,0.937,3.48
			c0,0.665-0.087,1.285-0.261,1.861c-0.174,0.576-0.43,1.076-0.769,1.5c-0.339,0.423-0.753,0.757-1.245,1.001
			c-0.492,0.243-1.058,0.365-1.699,0.365c-0.635,0-1.182-0.123-1.639-0.37s-0.852-0.612-1.181-1.093l-0.055,1.115
			c-0.018,0.153-0.099,0.229-0.244,0.229H204.244z M208.062,558.358c-0.604,0-1.151,0.156-1.639,0.466
			c-0.489,0.312-0.925,0.745-1.31,1.3v4.8c0.348,0.525,0.732,0.892,1.154,1.102c0.421,0.211,0.907,0.316,1.456,0.316
			c0.538,0,1.007-0.097,1.411-0.292c0.403-0.195,0.741-0.471,1.012-0.827c0.271-0.357,0.476-0.784,0.614-1.281
			c0.137-0.497,0.206-1.043,0.206-1.642c0-1.353-0.25-2.349-0.75-2.985C209.714,558.677,208.996,558.358,208.062,558.358z"/>
		<path fill="#434343" d="M228.999,560.434c0,1-0.149,1.899-0.448,2.698c-0.298,0.798-0.719,1.478-1.262,2.04
			c-0.543,0.561-1.192,0.99-1.948,1.289c-0.756,0.298-1.594,0.448-2.515,0.448h-4.718v-12.94h4.718c0.92,0,1.759,0.149,2.515,0.449
			c0.756,0.298,1.405,0.728,1.948,1.289c0.542,0.561,0.963,1.24,1.262,2.04C228.85,558.544,228.999,559.44,228.999,560.434z
			 M228.029,560.434c0-0.902-0.125-1.707-0.375-2.415c-0.25-0.707-0.602-1.304-1.056-1.792c-0.455-0.488-1.001-0.86-1.642-1.116
			c-0.64-0.256-1.35-0.384-2.131-0.384h-3.777v11.422h3.777c0.781,0,1.491-0.128,2.131-0.384c0.64-0.255,1.187-0.627,1.642-1.115
			c0.454-0.488,0.806-1.085,1.056-1.792C227.904,562.15,228.029,561.343,228.029,560.434z"/>
		<path fill="#434343" d="M234.998,557.664c0.512,0,0.986,0.088,1.422,0.265c0.436,0.177,0.813,0.435,1.134,0.773
			c0.32,0.338,0.57,0.754,0.75,1.248s0.27,1.061,0.27,1.701c0,0.134-0.02,0.226-0.059,0.273c-0.04,0.049-0.103,0.074-0.188,0.074
			h-6.566v0.174c0,0.682,0.079,1.283,0.238,1.8c0.159,0.52,0.384,0.954,0.677,1.304c0.292,0.351,0.646,0.614,1.06,0.79
			c0.415,0.178,0.878,0.266,1.391,0.266c0.457,0,0.854-0.05,1.189-0.151c0.335-0.101,0.617-0.213,0.846-0.338
			c0.229-0.125,0.41-0.238,0.544-0.338c0.134-0.102,0.231-0.151,0.292-0.151c0.079,0,0.14,0.031,0.183,0.091l0.238,0.292
			c-0.146,0.183-0.34,0.354-0.581,0.512c-0.241,0.159-0.509,0.295-0.804,0.408c-0.296,0.113-0.613,0.202-0.951,0.269
			s-0.679,0.101-1.02,0.101c-0.622,0-1.188-0.108-1.701-0.324c-0.512-0.217-0.951-0.533-1.318-0.947
			c-0.367-0.416-0.65-0.922-0.851-1.522c-0.2-0.601-0.3-1.289-0.3-2.062c0-0.653,0.093-1.255,0.279-1.806
			c0.186-0.553,0.454-1.028,0.804-1.427c0.351-0.399,0.78-0.712,1.29-0.938C233.773,557.776,234.351,557.664,234.998,557.664z
			 M235.011,558.313c-0.469,0-0.888,0.073-1.26,0.219c-0.372,0.146-0.692,0.357-0.963,0.63c-0.271,0.275-0.49,0.604-0.657,0.988
			c-0.167,0.384-0.279,0.814-0.333,1.29h5.99c0-0.488-0.067-0.924-0.201-1.312c-0.134-0.387-0.323-0.716-0.566-0.983
			c-0.243-0.268-0.536-0.475-0.876-0.618C235.802,558.385,235.425,558.313,235.011,558.313z"/>
		<path fill="#434343" d="M245.926,558.944c-0.043,0.085-0.11,0.127-0.202,0.127c-0.067,0-0.154-0.038-0.261-0.114
			c-0.106-0.076-0.247-0.162-0.42-0.256c-0.174-0.095-0.388-0.18-0.641-0.257c-0.253-0.076-0.563-0.114-0.928-0.114
			c-0.329,0-0.629,0.047-0.901,0.142c-0.271,0.094-0.502,0.22-0.695,0.378c-0.192,0.158-0.341,0.342-0.448,0.552
			c-0.106,0.21-0.16,0.43-0.16,0.661c0,0.286,0.073,0.523,0.22,0.712c0.146,0.188,0.338,0.349,0.576,0.482
			c0.238,0.134,0.507,0.25,0.81,0.347c0.301,0.097,0.61,0.194,0.928,0.292c0.316,0.097,0.626,0.206,0.928,0.325
			c0.301,0.118,0.571,0.267,0.809,0.443c0.237,0.177,0.43,0.393,0.576,0.65c0.146,0.255,0.219,0.566,0.219,0.932
			c0,0.396-0.072,0.766-0.215,1.106c-0.144,0.341-0.351,0.637-0.622,0.887c-0.271,0.25-0.605,0.448-1.001,0.594
			c-0.396,0.147-0.848,0.22-1.354,0.22c-0.64,0-1.192-0.102-1.655-0.306c-0.463-0.204-0.877-0.471-1.244-0.8l0.21-0.312
			c0.031-0.048,0.064-0.084,0.1-0.109c0.037-0.024,0.088-0.037,0.156-0.037c0.08,0,0.177,0.049,0.292,0.146
			c0.116,0.098,0.267,0.203,0.453,0.316c0.186,0.113,0.417,0.218,0.695,0.316c0.277,0.097,0.621,0.146,1.028,0.146
			c0.385,0,0.723-0.054,1.016-0.161c0.292-0.106,0.536-0.251,0.731-0.435c0.195-0.183,0.343-0.397,0.443-0.644
			c0.101-0.248,0.151-0.508,0.151-0.783c0-0.305-0.073-0.558-0.22-0.759c-0.146-0.201-0.338-0.372-0.576-0.511
			c-0.238-0.141-0.508-0.26-0.81-0.357c-0.301-0.097-0.612-0.195-0.933-0.292c-0.32-0.097-0.631-0.204-0.933-0.32
			c-0.302-0.116-0.572-0.262-0.81-0.438c-0.238-0.177-0.43-0.392-0.576-0.646c-0.146-0.252-0.22-0.568-0.22-0.945
			c0-0.324,0.07-0.634,0.21-0.934c0.141-0.299,0.34-0.56,0.6-0.787c0.259-0.226,0.574-0.405,0.946-0.54
			c0.372-0.134,0.79-0.201,1.253-0.201c0.555,0,1.047,0.08,1.477,0.241c0.43,0.161,0.825,0.406,1.185,0.737L245.926,558.944z"/>
		<path fill="#434343" d="M250.288,554.673c0,0.109-0.023,0.212-0.068,0.307c-0.046,0.094-0.105,0.177-0.179,0.251
			c-0.073,0.073-0.159,0.131-0.256,0.173c-0.097,0.043-0.201,0.064-0.311,0.064c-0.109,0-0.213-0.021-0.311-0.064
			c-0.098-0.042-0.183-0.101-0.256-0.173c-0.073-0.074-0.131-0.157-0.174-0.251c-0.042-0.095-0.063-0.198-0.063-0.307
			s0.021-0.214,0.063-0.316c0.043-0.101,0.101-0.187,0.174-0.26c0.073-0.073,0.158-0.13,0.256-0.174
			c0.098-0.042,0.201-0.064,0.311-0.064c0.11,0,0.214,0.021,0.311,0.064c0.098,0.043,0.183,0.101,0.256,0.174
			c0.073,0.074,0.133,0.16,0.179,0.26C250.265,554.458,250.288,554.563,250.288,554.673z M249.903,557.81v9.099h-0.869v-9.099
			H249.903z"/>
		<path fill="#434343" d="M256.122,557.655c0.396,0,0.764,0.048,1.102,0.146c0.339,0.097,0.642,0.234,0.911,0.411h2.332v0.303
			c0,0.152-0.086,0.234-0.256,0.247l-1.381,0.101c0.17,0.232,0.301,0.492,0.393,0.781c0.091,0.291,0.137,0.6,0.137,0.929
			c0,0.439-0.079,0.837-0.238,1.193c-0.159,0.356-0.379,0.662-0.663,0.915c-0.284,0.253-0.624,0.45-1.02,0.59
			c-0.396,0.14-0.835,0.21-1.316,0.21c-0.524,0-1-0.079-1.427-0.238c-0.255,0.146-0.457,0.32-0.604,0.521
			c-0.146,0.201-0.219,0.396-0.219,0.585c0,0.262,0.092,0.463,0.274,0.604c0.183,0.141,0.425,0.242,0.728,0.306
			c0.301,0.064,0.646,0.106,1.033,0.124c0.387,0.018,0.78,0.038,1.18,0.059c0.399,0.021,0.792,0.059,1.18,0.115
			c0.387,0.055,0.731,0.151,1.034,0.288c0.301,0.137,0.543,0.33,0.727,0.576s0.274,0.574,0.274,0.982
			c0,0.378-0.095,0.741-0.283,1.088c-0.189,0.348-0.462,0.655-0.819,0.924c-0.357,0.268-0.788,0.482-1.294,0.644
			c-0.506,0.162-1.073,0.242-1.701,0.242c-0.64,0-1.201-0.066-1.683-0.196c-0.482-0.131-0.886-0.308-1.212-0.53
			s-0.572-0.48-0.736-0.772s-0.247-0.604-0.247-0.934c0-0.481,0.159-0.896,0.476-1.244c0.317-0.347,0.753-0.616,1.308-0.805
			c-0.305-0.104-0.547-0.252-0.727-0.448c-0.18-0.195-0.27-0.466-0.27-0.813c0-0.128,0.024-0.262,0.073-0.403
			c0.049-0.139,0.122-0.279,0.22-0.416c0.098-0.136,0.215-0.266,0.352-0.389c0.137-0.122,0.297-0.231,0.48-0.329
			c-0.433-0.249-0.77-0.582-1.01-0.997c-0.241-0.414-0.362-0.898-0.362-1.454c0-0.438,0.078-0.837,0.233-1.193
			c0.156-0.357,0.375-0.663,0.659-0.918c0.284-0.257,0.626-0.455,1.029-0.595C255.189,557.725,255.634,557.655,256.122,557.655z
			 M259.496,567.521c0-0.287-0.075-0.517-0.224-0.691c-0.149-0.173-0.349-0.309-0.599-0.406s-0.538-0.167-0.864-0.206
			c-0.326-0.04-0.667-0.069-1.024-0.087c-0.357-0.019-0.715-0.037-1.075-0.055c-0.36-0.019-0.695-0.056-1.005-0.11
			c-0.232,0.091-0.447,0.196-0.645,0.316c-0.199,0.118-0.368,0.253-0.508,0.402c-0.14,0.149-0.25,0.314-0.329,0.494
			c-0.08,0.18-0.119,0.376-0.119,0.59c0,0.268,0.069,0.517,0.206,0.746c0.137,0.228,0.338,0.426,0.604,0.594
			c0.266,0.167,0.59,0.3,0.974,0.398c0.384,0.097,0.826,0.146,1.326,0.146c0.463,0,0.895-0.053,1.294-0.156
			c0.4-0.104,0.747-0.25,1.042-0.439c0.296-0.188,0.528-0.414,0.695-0.676C259.413,568.119,259.496,567.832,259.496,567.521z
			 M256.122,562.886c0.39,0,0.738-0.057,1.042-0.17s0.561-0.27,0.768-0.471c0.207-0.201,0.365-0.442,0.471-0.722
			s0.16-0.591,0.16-0.933c0-0.34-0.055-0.653-0.165-0.937c-0.11-0.284-0.27-0.526-0.48-0.728c-0.21-0.201-0.467-0.356-0.769-0.465
			c-0.302-0.11-0.645-0.165-1.029-0.165c-0.384,0-0.729,0.055-1.033,0.165c-0.305,0.109-0.563,0.265-0.773,0.465
			c-0.21,0.202-0.37,0.444-0.48,0.728c-0.109,0.284-0.165,0.596-0.165,0.937c0,0.342,0.055,0.653,0.165,0.933
			c0.11,0.28,0.27,0.521,0.48,0.722c0.21,0.201,0.468,0.358,0.773,0.471C255.393,562.829,255.737,562.886,256.122,562.886z"/>
		<path fill="#434343" d="M262.349,566.909v-9.099h0.476c0.159,0,0.25,0.076,0.275,0.229l0.082,1.372
			c0.415-0.525,0.897-0.947,1.45-1.267c0.551-0.32,1.166-0.48,1.842-0.48c0.5,0,0.94,0.079,1.322,0.238
			c0.38,0.158,0.696,0.387,0.946,0.686c0.25,0.299,0.439,0.658,0.567,1.079c0.128,0.421,0.192,0.896,0.192,1.427v5.816h-0.869
			v-5.816c0-0.854-0.195-1.522-0.585-2.007c-0.39-0.485-0.987-0.728-1.792-0.728c-0.598,0-1.152,0.154-1.665,0.462
			c-0.512,0.308-0.969,0.73-1.372,1.267v6.822H262.349z"/>
		<path fill="#434343" d="M275.673,557.664c0.512,0,0.986,0.088,1.422,0.265c0.436,0.177,0.814,0.435,1.134,0.773
			c0.32,0.338,0.57,0.754,0.75,1.248s0.27,1.061,0.27,1.701c0,0.134-0.02,0.226-0.059,0.273c-0.04,0.049-0.102,0.074-0.188,0.074
			h-6.566v0.174c0,0.682,0.079,1.283,0.237,1.8c0.159,0.52,0.384,0.954,0.677,1.304c0.292,0.351,0.646,0.614,1.061,0.79
			c0.415,0.178,0.878,0.266,1.39,0.266c0.458,0,0.854-0.05,1.189-0.151c0.335-0.101,0.617-0.213,0.846-0.338s0.41-0.238,0.544-0.338
			c0.134-0.102,0.231-0.151,0.292-0.151c0.079,0,0.14,0.031,0.183,0.091l0.237,0.292c-0.146,0.183-0.34,0.354-0.581,0.512
			c-0.24,0.159-0.509,0.295-0.804,0.408c-0.296,0.113-0.613,0.202-0.951,0.269c-0.338,0.067-0.679,0.101-1.02,0.101
			c-0.622,0-1.189-0.108-1.701-0.324c-0.512-0.217-0.951-0.533-1.318-0.947c-0.367-0.416-0.65-0.922-0.851-1.522
			c-0.201-0.601-0.3-1.289-0.3-2.062c0-0.653,0.093-1.255,0.279-1.806c0.186-0.553,0.454-1.028,0.805-1.427
			c0.351-0.399,0.78-0.712,1.289-0.938C274.449,557.776,275.026,557.664,275.673,557.664z M275.686,558.313
			c-0.469,0-0.889,0.073-1.26,0.219c-0.372,0.146-0.693,0.357-0.963,0.63c-0.271,0.275-0.49,0.604-0.658,0.988
			c-0.167,0.384-0.278,0.814-0.333,1.29h5.99c0-0.488-0.067-0.924-0.201-1.312s-0.323-0.716-0.566-0.983
			c-0.243-0.268-0.536-0.475-0.876-0.618C276.478,558.385,276.1,558.313,275.686,558.313z"/>
		<path fill="#434343" d="M281.589,566.909v-9.099h0.458c0.104,0,0.178,0.021,0.224,0.064c0.046,0.043,0.071,0.116,0.078,0.22
			l0.073,1.92c0.292-0.738,0.683-1.315,1.17-1.732s1.088-0.626,1.802-0.626c0.274,0,0.527,0.029,0.759,0.087
			c0.232,0.057,0.451,0.141,0.658,0.251l-0.119,0.603c-0.018,0.098-0.08,0.147-0.183,0.147c-0.037,0-0.089-0.013-0.156-0.037
			s-0.151-0.052-0.251-0.083c-0.101-0.03-0.225-0.058-0.371-0.083c-0.146-0.023-0.314-0.036-0.502-0.036
			c-0.689,0-1.254,0.213-1.696,0.64c-0.442,0.426-0.8,1.042-1.075,1.847v5.917H281.589z"/>
		<path fill="#434343" d="M296.925,553.822c0.409,0,0.795,0.07,1.162,0.211c0.366,0.14,0.685,0.33,0.956,0.567
			c0.271,0.237,0.488,0.513,0.648,0.827c0.162,0.313,0.249,0.642,0.262,0.983c-0.085,0.018-0.161,0.036-0.228,0.055
			c-0.142,0.03-0.251,0.046-0.331,0.046c-0.049,0-0.094-0.019-0.136-0.055c-0.044-0.037-0.074-0.089-0.092-0.156
			c-0.043-0.158-0.116-0.341-0.22-0.548c-0.104-0.208-0.244-0.403-0.421-0.586c-0.177-0.182-0.397-0.338-0.663-0.466
			c-0.265-0.128-0.578-0.192-0.938-0.192c-0.365,0-0.698,0.056-0.997,0.168c-0.299,0.113-0.555,0.271-0.768,0.476
			c-0.214,0.205-0.38,0.447-0.499,0.727c-0.119,0.281-0.178,0.589-0.178,0.924c0,0.5,0.128,0.978,0.384,1.436
			c0.255,0.458,0.652,0.948,1.189,1.472l4.078,4.023c0.274-0.439,0.492-0.896,0.654-1.371c0.161-0.476,0.266-0.937,0.314-1.381
			c0.013-0.079,0.037-0.142,0.074-0.188c0.035-0.046,0.092-0.069,0.165-0.069h0.502c-0.012,0.574-0.12,1.163-0.324,1.77
			c-0.204,0.607-0.496,1.188-0.874,1.743l2.726,2.67h-0.813c-0.11,0-0.2-0.012-0.271-0.037s-0.15-0.08-0.242-0.164l-1.875-1.839
			c-0.273,0.317-0.576,0.61-0.904,0.879c-0.33,0.268-0.686,0.498-1.071,0.689c-0.384,0.192-0.793,0.343-1.229,0.454
			c-0.436,0.109-0.895,0.164-1.376,0.164c-0.457,0-0.909-0.076-1.354-0.229c-0.445-0.152-0.843-0.376-1.193-0.672
			s-0.634-0.659-0.851-1.088c-0.217-0.43-0.324-0.919-0.324-1.468c0-0.438,0.079-0.857,0.238-1.257
			c0.158-0.399,0.375-0.765,0.649-1.097c0.274-0.333,0.601-0.63,0.979-0.892c0.378-0.261,0.787-0.476,1.225-0.64
			c-0.433-0.488-0.757-0.962-0.973-1.422c-0.217-0.459-0.325-0.952-0.325-1.477c0-0.427,0.078-0.822,0.233-1.185
			c0.155-0.363,0.376-0.678,0.663-0.947c0.287-0.268,0.629-0.478,1.029-0.63C295.984,553.899,296.431,553.822,296.925,553.822z
			 M292.755,563.543c0,0.47,0.09,0.879,0.27,1.226s0.413,0.638,0.7,0.873c0.286,0.236,0.605,0.411,0.956,0.526
			c0.351,0.116,0.696,0.174,1.038,0.174c0.427,0,0.831-0.049,1.212-0.146c0.381-0.097,0.738-0.233,1.07-0.407
			c0.332-0.173,0.637-0.378,0.915-0.616c0.276-0.238,0.531-0.5,0.763-0.787l-4.197-4.125c-0.037-0.03-0.07-0.064-0.101-0.101
			c-0.402,0.171-0.767,0.375-1.093,0.613c-0.326,0.238-0.603,0.501-0.827,0.792c-0.226,0.289-0.4,0.602-0.521,0.937
			C292.816,562.836,292.755,563.184,292.755,563.543z"/>
		<path fill="#434343" d="M307.23,553.969h0.776c0.178,0,0.291,0.083,0.34,0.248l3.264,10.635c0.037,0.122,0.069,0.252,0.097,0.393
			c0.027,0.141,0.056,0.287,0.087,0.439c0.031-0.152,0.06-0.298,0.091-0.439c0.031-0.141,0.067-0.271,0.109-0.393l3.658-10.635
			c0.025-0.068,0.067-0.125,0.129-0.174c0.061-0.049,0.134-0.073,0.219-0.073h0.257c0.085,0,0.155,0.023,0.21,0.069
			c0.056,0.046,0.098,0.105,0.128,0.179l3.658,10.635c0.043,0.122,0.08,0.25,0.114,0.384c0.033,0.134,0.064,0.277,0.096,0.43
			c0.031-0.146,0.059-0.288,0.083-0.425c0.024-0.137,0.055-0.267,0.091-0.388l3.265-10.635c0.018-0.068,0.061-0.125,0.124-0.174
			c0.063-0.049,0.138-0.073,0.224-0.073h0.713l-4.069,12.94h-0.841l-3.823-11.23c-0.048-0.146-0.09-0.301-0.128-0.467
			c-0.036,0.166-0.078,0.32-0.128,0.467l-3.831,11.23h-0.832L307.23,553.969z"/>
		<path fill="#434343" d="M329.855,557.664c0.512,0,0.986,0.088,1.422,0.265c0.436,0.177,0.813,0.435,1.135,0.773
			c0.319,0.338,0.569,0.754,0.749,1.248s0.269,1.061,0.269,1.701c0,0.134-0.019,0.226-0.058,0.273
			c-0.04,0.049-0.103,0.074-0.188,0.074h-6.566v0.174c0,0.682,0.078,1.283,0.236,1.8c0.159,0.52,0.385,0.954,0.678,1.304
			s0.646,0.614,1.061,0.79c0.414,0.178,0.879,0.266,1.39,0.266c0.458,0,0.854-0.05,1.19-0.151c0.335-0.101,0.616-0.213,0.845-0.338
			c0.229-0.125,0.41-0.238,0.544-0.338c0.134-0.102,0.232-0.151,0.293-0.151c0.08,0,0.141,0.031,0.183,0.091l0.239,0.292
			c-0.147,0.183-0.341,0.354-0.582,0.512c-0.24,0.159-0.509,0.295-0.805,0.408c-0.295,0.113-0.612,0.202-0.951,0.269
			c-0.337,0.067-0.679,0.101-1.02,0.101c-0.621,0-1.188-0.108-1.701-0.324c-0.512-0.217-0.951-0.533-1.318-0.947
			c-0.366-0.416-0.649-0.922-0.851-1.522c-0.199-0.601-0.299-1.289-0.299-2.062c0-0.653,0.092-1.255,0.279-1.806
			c0.185-0.553,0.453-1.028,0.804-1.427c0.351-0.399,0.78-0.712,1.289-0.938C328.631,557.776,329.208,557.664,329.855,557.664z
			 M329.869,558.313c-0.469,0-0.889,0.073-1.261,0.219c-0.371,0.146-0.693,0.357-0.963,0.63c-0.271,0.275-0.49,0.604-0.657,0.988
			c-0.168,0.384-0.278,0.814-0.334,1.29h5.99c0-0.488-0.067-0.924-0.201-1.312s-0.322-0.716-0.566-0.983
			c-0.243-0.268-0.535-0.475-0.876-0.618C330.659,558.385,330.282,558.313,329.869,558.313z"/>
		<path fill="#434343" d="M335.863,566.909v-13.305h0.869l0.009,5.797c0.401-0.536,0.868-0.96,1.399-1.271
			c0.529-0.311,1.128-0.466,1.792-0.466c1.115,0,1.986,0.385,2.611,1.156c0.625,0.771,0.938,1.931,0.938,3.48
			c0,0.665-0.087,1.285-0.262,1.861c-0.174,0.576-0.431,1.076-0.77,1.5c-0.339,0.423-0.753,0.757-1.245,1.001
			c-0.492,0.243-1.057,0.365-1.698,0.365c-0.636,0-1.182-0.123-1.64-0.37c-0.457-0.247-0.852-0.612-1.181-1.093l-0.055,1.115
			c-0.019,0.153-0.1,0.229-0.243,0.229H335.863z M339.682,558.358c-0.605,0-1.152,0.156-1.64,0.466
			c-0.488,0.312-0.926,0.745-1.31,1.3v4.8c0.348,0.525,0.732,0.892,1.154,1.102c0.421,0.211,0.906,0.316,1.455,0.316
			c0.538,0,1.007-0.097,1.411-0.292c0.402-0.195,0.74-0.471,1.012-0.827c0.272-0.357,0.477-0.784,0.613-1.281
			c0.138-0.497,0.206-1.043,0.206-1.642c0-1.353-0.25-2.349-0.75-2.985C341.334,558.677,340.614,558.358,339.682,558.358z"/>
		<path fill="#434343" d="M350.934,561.697v5.212h-0.933v-12.94h3.337c1.519,0,2.664,0.333,3.435,0.997
			c0.771,0.666,1.156,1.613,1.156,2.844c0,0.567-0.105,1.088-0.314,1.564c-0.21,0.476-0.514,0.885-0.91,1.23
			c-0.396,0.344-0.879,0.612-1.445,0.805c-0.567,0.192-1.207,0.288-1.921,0.288H350.934z M350.934,560.947h2.404
			c0.574,0,1.086-0.08,1.536-0.238c0.451-0.159,0.834-0.378,1.147-0.659c0.315-0.28,0.557-0.611,0.724-0.993
			c0.168-0.38,0.251-0.797,0.251-1.248c0-0.993-0.307-1.759-0.918-2.295c-0.613-0.537-1.526-0.805-2.74-0.805h-2.404V560.947z"/>
		<path fill="#434343" d="M360.782,557.81v5.816c0,0.854,0.196,1.522,0.587,2.007c0.393,0.484,0.989,0.727,1.791,0.727
			c0.592,0,1.146-0.15,1.659-0.452c0.515-0.301,0.976-0.721,1.386-1.257v-6.841h0.868v9.099h-0.478c-0.17,0-0.257-0.079-0.263-0.238
			l-0.082-1.353c-0.421,0.524-0.908,0.945-1.462,1.262c-0.551,0.317-1.167,0.476-1.844,0.476c-0.507,0-0.95-0.08-1.328-0.238
			c-0.379-0.159-0.692-0.388-0.943-0.686c-0.25-0.299-0.438-0.659-0.568-1.08c-0.127-0.421-0.192-0.896-0.192-1.426v-5.816H360.782z
			"/>
		<path fill="#434343" d="M370.128,566.909v-13.305h0.868l0.009,5.797c0.403-0.536,0.869-0.96,1.4-1.271
			c0.53-0.311,1.127-0.466,1.792-0.466c1.115,0,1.985,0.385,2.61,1.156c0.625,0.771,0.938,1.931,0.938,3.48
			c0,0.665-0.087,1.285-0.261,1.861c-0.175,0.576-0.431,1.076-0.77,1.5c-0.338,0.423-0.753,0.757-1.244,1.001
			c-0.492,0.243-1.059,0.365-1.699,0.365c-0.636,0-1.182-0.123-1.639-0.37c-0.458-0.247-0.854-0.612-1.182-1.093l-0.056,1.115
			c-0.018,0.153-0.098,0.229-0.243,0.229H370.128z M373.945,558.358c-0.604,0-1.15,0.156-1.639,0.466
			c-0.489,0.312-0.926,0.745-1.311,1.3v4.8c0.349,0.525,0.732,0.892,1.154,1.102c0.422,0.211,0.906,0.316,1.456,0.316
			c0.538,0,1.008-0.097,1.411-0.292c0.402-0.195,0.741-0.471,1.012-0.827c0.271-0.357,0.477-0.784,0.613-1.281
			c0.139-0.497,0.206-1.043,0.206-1.642c0-1.353-0.25-2.349-0.751-2.985C375.598,558.677,374.88,558.358,373.945,558.358z"/>
		<path fill="#434343" d="M381.147,553.604v13.305h-0.868v-13.305H381.147z"/>
		<path fill="#434343" d="M385.875,554.673c0,0.109-0.023,0.212-0.067,0.307c-0.047,0.094-0.106,0.177-0.179,0.251
			c-0.074,0.073-0.158,0.131-0.257,0.173c-0.097,0.043-0.201,0.064-0.311,0.064s-0.214-0.021-0.312-0.064
			c-0.097-0.042-0.182-0.101-0.256-0.173c-0.073-0.074-0.131-0.157-0.174-0.251c-0.042-0.095-0.063-0.198-0.063-0.307
			s0.021-0.214,0.063-0.316c0.043-0.101,0.101-0.187,0.174-0.26c0.074-0.073,0.159-0.13,0.256-0.174
			c0.098-0.042,0.202-0.064,0.312-0.064s0.214,0.021,0.311,0.064c0.099,0.043,0.183,0.101,0.257,0.174
			c0.072,0.074,0.132,0.16,0.179,0.26C385.852,554.458,385.875,554.563,385.875,554.673z M385.49,557.81v9.099h-0.868v-9.099H385.49
			z"/>
		<path fill="#434343" d="M393.722,558.944c-0.043,0.085-0.11,0.127-0.202,0.127c-0.066,0-0.153-0.038-0.26-0.114
			c-0.107-0.076-0.248-0.162-0.421-0.256c-0.174-0.095-0.387-0.18-0.64-0.257c-0.254-0.076-0.563-0.114-0.929-0.114
			c-0.329,0-0.63,0.047-0.9,0.142c-0.271,0.094-0.504,0.22-0.696,0.378c-0.191,0.158-0.341,0.342-0.447,0.552
			c-0.105,0.21-0.159,0.43-0.159,0.661c0,0.286,0.072,0.523,0.219,0.712c0.147,0.188,0.339,0.349,0.576,0.482
			c0.238,0.134,0.508,0.25,0.81,0.347c0.302,0.097,0.61,0.194,0.928,0.292c0.316,0.097,0.627,0.206,0.928,0.325
			c0.302,0.118,0.572,0.267,0.811,0.443c0.236,0.177,0.429,0.393,0.576,0.65c0.146,0.255,0.219,0.566,0.219,0.932
			c0,0.396-0.071,0.766-0.214,1.106c-0.145,0.341-0.351,0.637-0.623,0.887c-0.271,0.25-0.605,0.448-1.001,0.594
			c-0.396,0.147-0.848,0.22-1.354,0.22c-0.64,0-1.192-0.102-1.655-0.306c-0.464-0.204-0.878-0.471-1.244-0.8l0.21-0.312
			c0.031-0.048,0.064-0.084,0.101-0.109c0.038-0.024,0.089-0.037,0.156-0.037c0.079,0,0.177,0.049,0.293,0.146
			c0.115,0.098,0.267,0.203,0.453,0.316c0.185,0.113,0.417,0.218,0.694,0.316c0.276,0.097,0.62,0.146,1.029,0.146
			c0.384,0,0.722-0.054,1.015-0.161c0.292-0.106,0.537-0.251,0.73-0.435c0.196-0.183,0.345-0.397,0.444-0.644
			c0.101-0.248,0.151-0.508,0.151-0.783c0-0.305-0.073-0.558-0.22-0.759c-0.146-0.201-0.339-0.372-0.576-0.511
			c-0.238-0.141-0.507-0.26-0.81-0.357c-0.302-0.097-0.613-0.195-0.933-0.292c-0.32-0.097-0.632-0.204-0.933-0.32
			c-0.302-0.116-0.571-0.262-0.81-0.438c-0.237-0.177-0.43-0.392-0.576-0.646c-0.146-0.252-0.22-0.568-0.22-0.945
			c0-0.324,0.07-0.634,0.21-0.934c0.141-0.299,0.341-0.56,0.601-0.787c0.259-0.226,0.573-0.405,0.945-0.54
			c0.372-0.134,0.789-0.201,1.254-0.201c0.554,0,1.047,0.08,1.476,0.241c0.431,0.161,0.825,0.406,1.186,0.737L393.722,558.944z"/>
		<path fill="#434343" d="M396.574,566.909v-13.305h0.869v5.761c0.42-0.519,0.9-0.932,1.44-1.239
			c0.539-0.308,1.145-0.462,1.815-0.462c0.5,0,0.939,0.079,1.321,0.238c0.38,0.158,0.696,0.387,0.947,0.686
			c0.248,0.299,0.438,0.658,0.565,1.079c0.129,0.421,0.192,0.896,0.192,1.427v5.816h-0.869v-5.816c0-0.854-0.195-1.522-0.586-2.007
			c-0.39-0.485-0.986-0.728-1.791-0.728c-0.598,0-1.152,0.154-1.665,0.462c-0.511,0.308-0.969,0.73-1.371,1.267v6.822H396.574z"/>
		<path fill="#434343" d="M409.897,557.664c0.513,0,0.985,0.088,1.422,0.265c0.436,0.177,0.814,0.435,1.135,0.773
			c0.319,0.338,0.569,0.754,0.75,1.248c0.18,0.494,0.269,1.061,0.269,1.701c0,0.134-0.02,0.226-0.059,0.273
			c-0.04,0.049-0.102,0.074-0.188,0.074h-6.566v0.174c0,0.682,0.079,1.283,0.237,1.8c0.159,0.52,0.385,0.954,0.678,1.304
			s0.646,0.614,1.061,0.79c0.414,0.178,0.878,0.266,1.39,0.266c0.457,0,0.854-0.05,1.189-0.151c0.335-0.101,0.617-0.213,0.846-0.338
			c0.228-0.125,0.41-0.238,0.544-0.338c0.134-0.102,0.231-0.151,0.292-0.151c0.08,0,0.141,0.031,0.184,0.091l0.237,0.292
			c-0.146,0.183-0.34,0.354-0.58,0.512c-0.241,0.159-0.509,0.295-0.805,0.408s-0.613,0.202-0.951,0.269s-0.679,0.101-1.021,0.101
			c-0.622,0-1.188-0.108-1.7-0.324c-0.513-0.217-0.951-0.533-1.318-0.947c-0.367-0.416-0.65-0.922-0.851-1.522
			c-0.199-0.601-0.3-1.289-0.3-2.062c0-0.653,0.093-1.255,0.278-1.806c0.186-0.553,0.453-1.028,0.804-1.427
			c0.351-0.399,0.782-0.712,1.291-0.938C408.674,557.776,409.251,557.664,409.897,557.664z M409.911,558.313
			c-0.469,0-0.889,0.073-1.261,0.219c-0.37,0.146-0.692,0.357-0.963,0.63c-0.271,0.275-0.489,0.604-0.657,0.988
			c-0.167,0.384-0.278,0.814-0.333,1.29h5.99c0-0.488-0.067-0.924-0.201-1.312s-0.323-0.716-0.566-0.983
			c-0.244-0.268-0.535-0.475-0.877-0.618C410.702,558.385,410.325,558.313,409.911,558.313z"/>
		<path fill="#434343" d="M415.813,566.909v-9.099h0.458c0.104,0,0.178,0.021,0.224,0.064c0.046,0.043,0.072,0.116,0.078,0.22
			l0.073,1.92c0.293-0.738,0.683-1.315,1.17-1.732c0.488-0.417,1.089-0.626,1.802-0.626c0.274,0,0.527,0.029,0.759,0.087
			c0.231,0.057,0.451,0.141,0.659,0.251l-0.119,0.603c-0.019,0.098-0.08,0.147-0.184,0.147c-0.036,0-0.088-0.013-0.155-0.037
			c-0.066-0.024-0.15-0.052-0.251-0.083s-0.225-0.058-0.371-0.083c-0.146-0.023-0.313-0.036-0.502-0.036
			c-0.689,0-1.255,0.213-1.696,0.64c-0.442,0.426-0.801,1.042-1.075,1.847v5.917H415.813z"/>
	</g>
</g>
</svg>
