<?xml version="1.0" encoding="utf-8"?>
<!-- Generator: Adobe Illustrator 16.0.0, SVG Export Plug-In . SVG Version: 6.00 Build 0)  -->
<!DOCTYPE svg PUBLIC "-//W3C//DTD SVG 1.1//EN" "http://www.w3.org/Graphics/SVG/1.1/DTD/svg11.dtd">
<svg version="1.1" id="Layer_1" xmlns="http://www.w3.org/2000/svg" xmlns:xlink="http://www.w3.org/1999/xlink" x="0px" y="0px"
	 width="1920px" height="1080px" viewBox="0 0 1920 1080" enable-background="new 0 0 1920 1080" xml:space="preserve">
<polygon fill="none" stroke="#E7E7E7" stroke-width="10" stroke-miterlimit="10" points="871.659,1066.709 250.549,540 
	871.659,13.292 "/>
<rect x="831.097" y="-8.504" fill="#FFFFFF" width="58.898" height="40.12"/>
<rect x="860.546" y="-8.504" fill="#FFFFFF" width="58.898" height="1068.443"/>
<rect x="450.625" y="193.48" fill="#FFFFFF" width="361.482" height="120"/>
<text transform="matrix(1 0 0 1 503.5425 275.2717)" fill="#434343" font-family="'Lato-Bold'" font-size="64">CONCEPT</text>
<rect x="831.097" y="1039.881" fill="#FFFFFF" width="58.898" height="40.119"/>
<g>
	<g>
		<defs>
			<polygon id="SVGID_1_" points="853.596,539.488 602.808,326.817 602.808,327.546 352.305,539.975 603.093,752.646 
				603.093,751.918 			"/>
		</defs>
		<clipPath id="SVGID_2_">
			<use xlink:href="#SVGID_1_"  overflow="visible"/>
		</clipPath>
		<g clip-path="url(#SVGID_2_)">
			
				<image overflow="visible" enable-background="new    " width="506" height="506" xlink:href="D:\soul\wodud222.github.io\portfolio\main_page\portfolio\Links\9875711-15979163.jpg"  transform="matrix(1 0 0 1 354.5459 286.7307)">
			</image>
		</g>
	</g>
</g>
<text transform="matrix(1 0 0 1 849.0977 487.6487)" fill="#434343" font-family="'Lato-Hairline'" font-size="48">Manners maketh Design.</text>
<text transform="matrix(1 0 0 1 944.9434 563.7854)" fill="#434343" font-family="'SDGothicNeoa-aTh-KSCpc-EUC-H'" font-size="32">매너가 디자인을 만든다.</text>
</svg>
